<svg width="252" height="144" viewBox="0 0 252 144" fill="none" xmlns="http://www.w3.org/2000/svg">
<g clip-path="url(#clip0_311_20)">
    <defs>
        <linearGradient id="paint0_linear_311_20" x1="193.368" y1="139.746" x2="193.368" y2="33.3203" gradientUnits="userSpaceOnUse">
            <stop stop-color="#808080" stop-opacity="0.25"/>
            <stop offset="0.54" stop-color="#808080" stop-opacity="0.12"/>
            <stop offset="1" stop-color="#808080" stop-opacity="0.1"/>
        </linearGradient>
        <clipPath id="clip0_311_20">
            <rect width="252" height="143.459" fill="white"/>
        </clipPath>
    </defs>
<path opacity="0.1" d="M252 94.8459C252.014 102.136 250.023 109.29 246.246 115.526C246.246 123.152 242.691 130.064 236.924 135.102C235.481 136.363 233.927 137.492 232.281 138.474C232.215 138.516 232.146 138.556 232.078 138.596C231.955 138.668 231.831 138.741 231.706 138.816L231.589 138.884C226.13 141.926 219.978 143.506 213.729 143.47H47.8382C36.3991 143.47 26.0438 139.488 18.541 133.051C11.0383 126.615 6.41463 117.707 6.41463 107.882C2.21333 101.413 -0.015392 93.8609 8.00124e-05 86.147C8.00124e-05 64.3085 17.455 46.6046 38.9896 46.6046C39.7518 46.6046 40.5073 46.6311 41.2585 46.6729C54.7704 23.6317 85.2483 7.56445 120.656 7.56445C142.424 7.56445 162.322 13.6332 177.563 23.6603C183.337 20.3966 189.858 18.6852 196.49 18.693C218.02 18.693 235.479 36.3969 235.479 58.2354C235.476 59.6172 235.402 60.9979 235.259 62.3722C240.449 66.0461 244.679 70.9142 247.593 76.566C250.506 82.2177 252.018 88.4873 252 94.8459V94.8459Z" fill="#273469"/>
<path opacity="0.1" d="M90.9766 107.333C138.666 107.333 177.326 106.297 177.326 105.02C177.326 103.743 138.666 102.707 90.9766 102.707C43.287 102.707 4.62695 103.743 4.62695 105.02C4.62695 106.297 43.287 107.333 90.9766 107.333Z" fill="#273469"/>
<g opacity="0.7">
<path d="M58.8162 87.9482H31.2812V103.148H58.8162V87.9482Z" fill="#65617D"/>
<path opacity="0.1" d="M49.3413 90.5938H40.9707V92.356H49.3413V90.5938Z" fill="#1E1E1E"/>
<path opacity="0.1" d="M48.2995 90.8125H42.0215V92.1342H48.2995V90.8125Z" fill="#1E1E1E"/>
<path d="M86.7908 87.9482H59.2559V103.148H86.7908V87.9482Z" fill="#65617D"/>
<path opacity="0.1" d="M77.3198 90.5938H68.9492V92.356H77.3198V90.5938Z" fill="#1E1E1E"/>
<path opacity="0.1" d="M76.2741 90.8125H69.9961V92.1342H76.2741V90.8125Z" fill="#1E1E1E"/>
<path d="M58.8162 72.3105H31.2812V87.5098H58.8162V72.3105Z" fill="#65617D"/>
<path opacity="0.1" d="M49.3413 74.9541H40.9707V76.7163H49.3413V74.9541Z" fill="#1E1E1E"/>
<path opacity="0.1" d="M48.2995 75.1748H42.0215V76.4965H48.2995V75.1748Z" fill="#1E1E1E"/>
<path d="M86.7908 72.3105H59.2559V87.5098H86.7908V72.3105Z" fill="#65617D"/>
<path opacity="0.1" d="M77.3198 74.9541H68.9492V76.7163H77.3198V74.9541Z" fill="#1E1E1E"/>
<path opacity="0.1" d="M76.2741 75.1748H69.9961V76.4965H76.2741V75.1748Z" fill="#1E1E1E"/>
<path d="M58.8162 56.4492H31.2812V71.6485H58.8162V56.4492Z" fill="#65617D"/>
<path opacity="0.1" d="M49.3413 59.0947H40.9707V60.857H49.3413V59.0947Z" fill="#1E1E1E"/>
<path opacity="0.1" d="M48.2995 59.3135H42.0215V60.6352H48.2995V59.3135Z" fill="#1E1E1E"/>
<path d="M86.7908 56.4492H59.2559V71.6485H86.7908V56.4492Z" fill="#65617D"/>
<path opacity="0.1" d="M77.3198 59.0947H68.9492V60.857H77.3198V59.0947Z" fill="#1E1E1E"/>
<path opacity="0.1" d="M76.2741 59.3135H69.9961V60.6352H76.2741V59.3135Z" fill="#1E1E1E"/>
<path d="M86.7908 40.5898H59.2559V55.7891H86.7908V40.5898Z" fill="#65617D"/>
<path opacity="0.1" d="M77.3198 43.2334H68.9492V44.9956H77.3198V43.2334Z" fill="#1E1E1E"/>
<path opacity="0.1" d="M76.2741 43.4541H69.9961V44.7758H76.2741V43.4541Z" fill="#1E1E1E"/>
</g>
<g opacity="0.7">
<path d="M114.765 87.7266H87.2305V102.926H114.765V87.7266Z" fill="#65617D"/>
<path opacity="0.1" d="M105.291 90.3721H96.9199V92.1343H105.291V90.3721Z" fill="#1E1E1E"/>
<path opacity="0.1" d="M104.249 90.5908H97.9707V91.9125H104.249V90.5908Z" fill="#1E1E1E"/>
<path d="M142.74 87.7266H115.205V102.926H142.74V87.7266Z" fill="#65617D"/>
<path opacity="0.1" d="M133.269 90.3721H124.898V92.1343H133.269V90.3721Z" fill="#1E1E1E"/>
<path opacity="0.1" d="M132.223 90.5908H125.945V91.9125H132.223V90.5908Z" fill="#1E1E1E"/>
<path d="M114.765 72.0889H87.2305V87.2882H114.765V72.0889Z" fill="#65617D"/>
<path opacity="0.1" d="M105.291 74.7324H96.9199V76.4947H105.291V74.7324Z" fill="#1E1E1E"/>
<path opacity="0.1" d="M104.249 74.9531H97.9707V76.2748H104.249V74.9531Z" fill="#1E1E1E"/>
<path d="M142.74 72.0889H115.205V87.2882H142.74V72.0889Z" fill="#65617D"/>
<path opacity="0.1" d="M133.269 74.7324H124.898V76.4947H133.269V74.7324Z" fill="#1E1E1E"/>
<path opacity="0.1" d="M132.223 74.9531H125.945V76.2748H132.223V74.9531Z" fill="#1E1E1E"/>
<path d="M114.765 56.2275H87.2305V71.4268H114.765V56.2275Z" fill="#65617D"/>
<path opacity="0.1" d="M105.291 58.873H96.9199V60.6353H105.291V58.873Z" fill="#1E1E1E"/>
<path opacity="0.1" d="M104.249 59.0918H97.9707V60.4135H104.249V59.0918Z" fill="#1E1E1E"/>
<path d="M142.74 56.2275H115.205V71.4268H142.74V56.2275Z" fill="#65617D"/>
<path opacity="0.1" d="M133.269 58.873H124.898V60.6353H133.269V58.873Z" fill="#1E1E1E"/>
<path opacity="0.1" d="M132.223 59.0918H125.945V60.4135H132.223V59.0918Z" fill="#1E1E1E"/>
<path d="M142.74 40.3682H115.205V55.5675H142.74V40.3682Z" fill="#65617D"/>
<path opacity="0.1" d="M133.269 43.0117H124.898V44.774H133.269V43.0117Z" fill="#1E1E1E"/>
<path opacity="0.1" d="M132.223 43.2324H125.945V44.5541H132.223V43.2324Z" fill="#1E1E1E"/>
</g>
<path opacity="0.1" d="M193.467 0.02415C193.467 0.02415 174.921 -1.09487 177.102 11.9016C177.102 11.9016 176.662 14.1991 178.75 15.2411C178.75 15.2411 178.783 14.2784 180.653 14.6067C181.319 14.717 181.995 14.7496 182.669 14.7036C183.578 14.6408 184.443 14.2835 185.131 13.6859V13.6859C185.131 13.6859 190.345 11.5316 192.372 3.01114C192.372 3.01114 193.872 1.15198 193.813 0.673975L190.682 2.01107C190.682 2.01107 191.753 4.26894 190.903 6.14572C190.903 6.14572 190.801 2.09258 190.2 2.18069C190.079 2.20051 188.574 2.96268 188.574 2.96268C188.574 2.96268 190.414 6.89467 189.026 9.7539C189.026 9.7539 189.552 4.90775 187.999 3.24684L185.797 4.53327C185.797 4.53327 187.946 8.59523 186.488 11.9104C186.488 11.9104 186.863 6.82639 185.332 4.84607L183.336 6.40345C183.336 6.40345 185.356 10.4081 184.125 13.1572C184.125 13.1572 183.964 7.23831 182.904 6.79114C182.904 6.79114 181.157 8.3331 180.891 8.9631C180.891 8.9631 182.274 11.8708 181.415 13.4039C181.415 13.4039 180.889 9.46093 180.457 9.43891C180.457 9.43891 178.717 12.0514 178.536 13.8445C178.536 13.8445 178.611 11.1791 180.036 9.18999C180.036 9.18999 178.353 9.47856 177.371 10.5711C177.371 10.5711 177.642 8.723 180.466 8.56219C180.466 8.56219 181.904 6.57967 182.287 6.45852C182.287 6.45852 179.481 6.22502 177.778 6.97838C177.778 6.97838 179.276 5.23597 182.803 6.02898L184.774 4.41873C184.774 4.41873 181.078 3.91429 179.51 4.4716C179.51 4.4716 181.314 2.92964 185.305 4.05527L187.455 2.78205C187.455 2.78205 184.303 2.10359 182.426 2.34149C182.426 2.34149 184.409 1.27314 188.085 2.43181L189.627 1.74233C189.627 1.74233 187.319 1.28855 186.642 1.21586C185.966 1.14317 185.931 0.958136 185.931 0.958136C187.393 0.714253 188.895 0.881261 190.268 1.44055C190.268 1.44055 193.524 0.22901 193.467 0.02415Z" fill="#273469"/>
<path opacity="0.1" d="M170.597 3.33128C170.597 3.33128 162.227 2.82463 163.207 8.69949C163.207 8.69949 163.011 9.73701 163.949 10.2084C163.949 10.2084 163.965 9.76785 164.81 9.91984C165.111 9.9704 165.416 9.9852 165.72 9.9639C166.131 9.93596 166.522 9.77427 166.833 9.50351V9.50351C166.833 9.50351 169.19 8.53208 170.106 4.68159C170.106 4.68159 170.782 3.84012 170.756 3.62425L169.342 4.22781C169.342 4.22781 169.826 5.24991 169.445 6.09799C169.445 6.09799 169.399 4.26526 169.128 4.30932C169.073 4.30932 168.392 4.66176 168.392 4.66176C168.392 4.66176 169.225 6.43942 168.597 7.73246C168.597 7.73246 168.835 5.54288 168.132 4.79173L167.137 5.37327C167.137 5.37327 168.11 7.2082 167.449 8.7061C167.449 8.7061 167.619 6.40858 166.927 5.51425L166.026 6.21694C166.026 6.21694 166.938 8.02764 166.383 9.27002C166.383 9.27002 166.311 6.59362 165.83 6.39316C165.83 6.39316 165.042 7.08925 164.921 7.37561C164.921 7.37561 165.546 8.69729 165.158 9.38016C165.158 9.38016 164.921 7.59809 164.718 7.59149C164.718 7.59149 163.934 8.77218 163.85 9.574C163.889 8.82569 164.123 8.10059 164.528 7.47033C164.075 7.55629 163.656 7.77296 163.324 8.09372C163.324 8.09372 163.447 7.26107 164.722 7.18617C164.722 7.18617 165.383 6.29183 165.546 6.23676C165.546 6.23676 164.277 6.13103 163.509 6.47246C163.509 6.47246 164.185 5.68386 165.78 6.04292L166.661 5.316C166.661 5.316 164.991 5.09572 164.282 5.34023C164.282 5.34023 165.097 4.64414 166.901 5.15079L167.87 4.57145C167.87 4.57145 166.447 4.26306 165.597 4.3754C165.597 4.3754 166.493 3.89079 168.154 4.41505L168.848 4.10446C168.848 4.10446 167.804 3.89739 167.498 3.86655C167.192 3.83572 167.176 3.74981 167.176 3.74981C167.837 3.6398 168.516 3.71608 169.137 3.97009C169.137 3.97009 170.624 3.42379 170.597 3.33128Z" fill="#273469"/>
<path d="M49.3848 142.026C54.2766 142.026 58.2422 141.355 58.2422 140.528C58.2422 139.701 54.2766 139.03 49.3848 139.03C44.493 139.03 40.5273 139.701 40.5273 140.528C40.5273 141.355 44.493 142.026 49.3848 142.026Z" fill="#273469"/>
<path d="M53.0466 138.081C53.451 137.751 53.7453 137.306 53.8903 136.805C54.0004 136.301 53.7845 135.704 53.2999 135.508C52.758 135.301 52.1787 135.677 51.7403 136.056C51.302 136.435 50.7975 136.869 50.2248 136.788C50.52 136.52 50.7408 136.18 50.8658 135.801C50.9909 135.422 51.0159 135.018 50.9385 134.627C50.9135 134.465 50.8449 134.312 50.7403 134.186C50.4385 133.865 49.8944 134.001 49.5331 134.254C48.3877 135.061 48.0683 136.618 48.0617 138.017C47.9471 137.512 48.0441 136.986 48.0418 136.475C48.0396 135.964 47.8965 135.373 47.4581 135.102C47.1878 134.957 46.8838 134.886 46.577 134.895C46.0637 134.876 45.4888 134.928 45.1386 135.305C44.698 135.772 44.8147 136.556 45.1936 137.067C45.5725 137.578 46.1518 137.907 46.6849 138.261C47.1114 138.516 47.475 138.863 47.7489 139.277C47.7819 139.335 47.8085 139.396 47.8282 139.46H51.0575C51.7797 139.092 52.4488 138.628 53.0466 138.081V138.081Z" fill="#273469"/>
<path d="M158.02 75.3374C158.002 75.1706 157.943 75.0109 157.847 74.8731C157.751 74.7353 157.622 74.6238 157.472 74.5488C157.345 74.4949 157.209 74.467 157.072 74.4668C156.935 74.4666 156.799 74.494 156.672 74.5474C156.545 74.6009 156.431 74.6792 156.335 74.7779C156.239 74.8765 156.164 74.9934 156.115 75.1215L151.222 85.4152L150.121 125.947H151.883L152.544 85.5055L157.928 75.9762C158.025 75.7784 158.058 75.5548 158.02 75.3374V75.3374Z" fill="#3F3D56"/>
<path opacity="0.1" d="M236.926 135.103C235.483 136.364 233.929 137.493 232.283 138.475C232.257 138.512 232.228 138.545 232.197 138.577C232.022 138.725 231.814 138.829 231.591 138.881V138.881C226.132 141.923 219.98 143.503 213.731 143.467H92.6167C78.739 142.039 70.2715 140.147 70.2715 138.07C70.2715 136.46 75.3555 134.96 84.1095 133.704C85.017 133.572 85.9635 133.444 86.9489 133.321C87.5554 133.244 88.1758 133.171 88.8102 133.1L89.8874 132.975C90.6863 132.884 91.5064 132.795 92.3479 132.708H92.4162L93.2973 132.62C94.0419 132.543 94.8018 132.47 95.5772 132.4L96.1411 132.349L97.5796 132.222C98.5135 132.138 99.4681 132.058 100.443 131.981C101.252 131.918 102.075 131.855 102.91 131.792C111.382 131.164 121.149 130.691 131.778 130.384L134.813 130.281L135.836 130.259L137.994 130.21L138.86 130.193L139.77 130.175L140.417 130.164L143.457 130.116L145.019 130.094H145.338C149.032 130.05 152.794 130.027 156.626 130.025C164.199 130.025 171.543 130.116 178.541 130.288C182.559 130.384 186.454 130.508 190.227 130.658H190.262C201.14 131.085 210.876 131.715 218.934 132.497L219.081 132.512C221.15 132.713 223.108 132.926 224.945 133.147C226.674 133.354 228.298 133.572 229.805 133.794C230.327 133.871 230.833 133.951 231.327 134.028L231.452 134.05C233.541 134.387 235.373 134.731 236.926 135.103Z" fill="#273469"/>
<path d="M232.281 138.475C232.255 138.511 232.226 138.545 232.195 138.577C232.02 138.725 231.812 138.829 231.589 138.881V138.881C231.143 139.006 230.685 139.079 230.223 139.101H230.084C229.821 139.11 229.556 139.101 229.294 139.074C229.102 139.047 228.908 139.034 228.714 139.037H228.688C228.406 139.077 228.129 139.145 227.862 139.242C227.266 139.405 226.651 139.493 226.033 139.502H225.813C225.121 139.502 224.421 139.478 223.727 139.482C223.615 139.482 223.507 139.482 223.39 139.482C222.201 139.513 221.018 139.702 219.828 139.722H219.447C218.282 139.693 217.09 139.444 216.163 138.74C215.976 138.616 215.824 138.446 215.722 138.246C215.643 138.035 215.617 137.809 215.645 137.585C215.667 137.187 215.744 136.753 216.044 136.484C216.232 136.34 216.448 136.235 216.678 136.178C217.081 136.048 217.487 135.922 217.89 135.797C218.293 135.671 218.753 135.537 219.187 135.409L219.271 135.383L219.513 135.31L219.67 135.257C219.859 135.196 220.041 135.113 220.211 135.01C220.436 134.868 220.627 134.678 220.769 134.453C220.793 134.413 220.819 134.371 220.841 134.33C220.864 134.288 220.841 134.261 220.826 134.226C220.789 133.951 220.76 133.669 220.711 133.4C220.092 133.256 219.526 132.937 219.084 132.479C218.703 132.102 218.383 131.669 218.134 131.195C217.586 130.164 217.304 129.012 216.894 127.917C216.266 126.252 215.352 124.714 214.431 123.19C213.59 121.785 212.744 120.375 211.788 119.047C211.151 118.165 210.466 117.326 209.836 116.443C208.054 113.978 206.776 111.186 206.074 108.226C205.967 107.659 205.814 107.1 205.618 106.557C205.239 105.632 204.545 104.878 204.008 104.032C203.43 103.121 203.034 102.105 202.842 101.043C202.732 100.44 202.547 99.7875 201.946 99.7214L201.882 99.847C200.635 102.27 199.355 104.737 197.476 106.715C197.176 107.006 196.901 107.322 196.655 107.66C196.457 107.988 196.281 108.328 196.126 108.678C195.829 109.307 195.434 109.884 194.956 110.39C194.814 110.533 194.659 110.664 194.494 110.779C194.274 110.939 194.029 111.062 193.769 111.143V111.143C193.667 111.174 193.562 111.198 193.456 111.213C193.456 111.24 193.467 111.264 193.469 111.291C193.472 111.317 193.483 111.348 193.487 111.376C193.811 113.139 193.672 114.955 193.084 116.648C193.069 116.701 193.051 116.751 193.031 116.804C192.94 117.051 192.841 117.293 192.734 117.531C192.465 118.115 192.146 118.674 191.895 119.267C191.853 119.368 191.811 119.47 191.773 119.571C190.892 121.93 191.113 124.565 190.998 127.1C190.988 127.654 190.922 128.206 190.802 128.748C190.652 129.358 190.412 129.988 190.28 130.618C190.159 131.09 190.15 131.584 190.251 132.061L190.198 132.081C189.963 132.169 189.723 132.248 189.482 132.323V132.356C189.568 132.849 189.652 133.343 189.738 133.834C189.811 134.257 189.897 134.715 190.192 135.015C190.272 135.081 190.346 135.155 190.412 135.235C190.586 135.508 190.432 135.869 190.465 136.193C190.513 136.651 190.936 137.041 190.87 137.497C190.84 137.633 190.778 137.76 190.688 137.867C190.598 137.974 190.484 138.057 190.355 138.11C190.246 138.159 190.132 138.195 190.016 138.218L189.943 138.233C189.811 138.257 189.678 138.27 189.546 138.284C187.905 138.447 186.242 138.61 184.616 138.332C184.295 138.277 183.975 138.204 183.649 138.178C183.238 138.16 182.825 138.176 182.416 138.229C179.4 138.514 176.367 138.573 173.343 138.405C172.556 138.361 171.653 138.233 171.237 137.561C170.891 137.004 171.016 136.283 171.19 135.647C171.24 135.413 171.33 135.189 171.457 134.986C171.471 134.964 171.487 134.943 171.505 134.924C171.911 134.42 172.673 134.389 173.329 134.409L175.475 134.473C175.686 134.49 175.899 134.474 176.105 134.424C176.453 134.323 176.717 134.045 177.043 133.889C177.453 133.693 177.968 133.669 178.264 133.334L178.301 133.285C178.353 133.215 178.402 133.141 178.446 133.065C178.446 133.05 178.466 133.034 178.477 133.019C178.485 133.005 178.494 132.992 178.504 132.979C178.775 132.622 179.248 132.503 179.634 132.277C179.692 132.243 179.747 132.203 179.799 132.16L179.843 132.12C179.428 131.824 179.066 131.46 178.772 131.043C178.659 130.921 178.575 130.775 178.528 130.616C178.501 130.496 178.51 130.371 178.554 130.257C178.564 130.229 178.576 130.201 178.59 130.175L178.601 130.153C178.75 129.858 179.059 129.591 179.228 129.29C179.235 129.28 179.24 129.27 179.244 129.259C179.477 128.818 179.524 128.135 179.178 127.781C179.354 124.88 180.151 122.053 180.328 119.144C180.398 117.991 180.369 116.835 180.422 115.679C180.475 114.522 180.599 113.401 180.729 112.266C181.019 109.674 181.724 107.134 181.625 104.53C181.617 104.287 181.627 104.044 181.656 103.803C181.655 103.786 181.655 103.768 181.656 103.75C181.726 103.217 181.893 102.7 182.147 102.226C182.466 101.69 182.828 101.18 183.229 100.702C184.583 98.9395 186.211 97.1772 186.694 95.0097C186.943 93.8906 187.493 92.8663 188.042 91.8597C188.366 91.2605 188.703 90.6459 189.22 90.2054C189.501 90.0112 189.761 89.7899 189.998 89.5445C190.359 89.0775 190.372 88.4321 190.586 87.877C190.696 87.5884 190.866 87.3241 190.949 87.0267C190.949 86.9959 190.965 86.9672 190.972 86.9364C191.02 86.6363 191.046 86.3329 191.049 86.0288C191.049 85.9407 191.062 85.8548 191.073 85.7689C191.202 84.898 191.454 84.0501 191.824 83.2511C191.87 83.1498 191.914 83.0463 191.958 82.9449C190.942 82.352 190.046 81.5743 189.315 80.6518C189.067 80.3534 188.852 80.0292 188.674 79.6848C188.22 78.7838 188.117 77.7573 187.903 76.7705C187.392 74.4179 186.222 72.2019 186.059 69.7964C186.011 69.0629 186.059 68.3051 185.804 67.6113C185.733 67.4237 185.65 67.2411 185.555 67.065C185.515 66.9901 185.478 66.9152 185.438 66.8447L185.394 66.761L185.282 66.5407L185.101 66.6817C180.595 70.2104 175.863 73.4421 170.937 76.3564L170.514 76.6075C170.294 76.7137 170.102 76.8707 169.955 77.0657C169.937 77.0943 169.922 77.1229 169.906 77.1516C169.805 77.3608 169.778 77.5921 169.686 77.8124C169.488 78.3169 168.979 78.6385 168.459 78.7883C167.518 79.0301 166.521 78.9016 165.672 78.4292C165.564 78.3741 165.452 78.3169 165.355 78.253C165.098 78.3958 164.826 78.5116 164.545 78.5988C163.663 78.8543 162.74 78.8433 161.829 78.8411C160.917 78.8389 159.985 78.8411 159.121 79.1407C158.544 79.3368 157.985 79.6606 157.385 79.6914C157.317 79.6958 157.247 79.6958 157.178 79.6914C156.837 79.6522 156.504 79.5546 156.196 79.4028L156.015 79.3213C155.922 79.277 155.831 79.2277 155.742 79.1737C155.646 79.1142 155.556 79.044 155.476 78.9645C155.359 78.8474 155.274 78.7026 155.229 78.5437C155.199 78.4289 155.199 78.3083 155.229 78.1935C155.237 78.142 155.264 78.0951 155.304 78.0613C155.343 78.0381 155.388 78.0266 155.434 78.0283C155.686 78.0255 155.939 78.0469 156.187 78.0922C156.333 78.1122 156.48 78.1203 156.628 78.1164H156.707C156.837 78.1024 156.963 78.062 157.076 77.9976C157.19 77.9332 157.289 77.8462 157.368 77.7419C157.392 77.7097 157.411 77.674 157.425 77.6362V77.6362C157.452 77.5743 157.465 77.5075 157.465 77.4401C157.466 77.4233 157.466 77.4063 157.465 77.3895C157.372 77.3476 157.28 77.3058 157.192 77.2551C157.145 77.2309 157.101 77.2044 157.057 77.178L157.031 77.1604C156.952 77.1066 156.878 77.0454 156.811 76.9776C156.768 76.9351 156.73 76.8878 156.698 76.8366C156.64 76.7568 156.596 76.6673 156.568 76.5722V76.5722C156.387 76.5343 156.199 76.5396 156.02 76.5877C155.78 76.6537 155.537 76.7947 155.299 76.8432C155.179 76.8734 155.053 76.868 154.936 76.8278C154.592 76.7044 154.471 76.2859 154.398 75.9268C154.385 75.8585 154.37 75.788 154.359 75.7176C154.334 75.5822 154.334 75.4432 154.359 75.3078C154.465 75.0001 154.669 74.735 154.938 74.5523L155.661 73.9465L155.714 73.9024C155.714 73.843 155.689 73.7835 155.681 73.724C155.655 73.5879 155.655 73.4482 155.681 73.3121C155.787 73.0049 155.99 72.7406 156.26 72.5587L157.859 71.2128C158.159 70.9617 158.485 70.6974 158.875 70.6709C159.454 70.6313 159.916 71.1115 160.35 71.497C160.897 71.9816 161.56 72.3781 162.289 72.4266C162.636 72.4425 162.983 72.3947 163.313 72.2856L163.5 72.2239C163.461 72.1424 163.421 72.0609 163.384 71.9794C163.32 71.845 163.256 71.7085 163.194 71.5719C164.133 71.5124 164.985 70.997 165.697 70.3802C166.408 69.7634 167.018 69.0343 167.736 68.4285C168.512 67.7677 169.402 67.2764 170.188 66.6398C172.016 65.1573 173.23 62.9788 175.186 61.6725C175.865 61.2165 176.649 60.8531 177.112 60.1746C177.255 59.9543 177.363 59.7341 177.51 59.5138C177.979 58.8529 178.783 58.5489 179.446 58.0908C180.11 57.6326 180.687 56.9607 181.226 56.3153C181.61 55.8549 181.995 55.3945 182.361 54.9209C182.698 54.2931 182.982 53.6367 183.334 53.0177C183.634 52.4948 183.982 52.002 184.376 51.5463C184.467 51.37 184.559 51.1938 184.658 51.022C184.757 50.8502 184.83 50.7334 184.923 50.5814C184.987 50.4823 185.053 50.3876 185.121 50.2907C184.92 49.936 184.729 49.6298 184.638 49.4955L184.594 49.436C184.4 49.229 184.193 49.0347 183.973 48.8544C183.743 48.8196 183.515 48.771 183.29 48.7091C181.931 48.3365 180.732 47.5272 179.877 46.4058C179.023 45.2845 178.561 43.9134 178.563 42.5038C178.562 42.4972 178.562 42.4905 178.563 42.4839C178.564 41.4744 178.804 40.4795 179.264 39.5807C179.356 39.4 179.455 39.226 179.563 39.0564C179.463 39.0246 179.365 38.9848 179.27 38.9374C179.11 38.8582 178.969 38.7429 178.861 38.6004C178.771 38.4735 178.713 38.327 178.691 38.1731C178.654 37.81 178.708 37.4434 178.85 37.1069C178.91 36.9449 178.978 36.7861 179.054 36.6311C179.06 36.622 179.066 36.6125 179.07 36.6025C180.054 34.62 182.154 33.4018 184.251 33.3159C186.513 33.2256 188.716 34.2873 190.5 35.8073C191.033 36.2441 191.509 36.745 191.919 37.2986C192.851 38.5938 193.271 40.2503 193.395 41.8914C193.441 42.399 193.432 42.9101 193.368 43.4157C193.345 43.5959 193.308 43.7741 193.258 43.9488C193.229 44.0523 193.192 44.1559 193.152 44.2594C193.113 44.3629 193.088 44.4092 193.053 44.4797V44.4907C193.02 44.5612 192.983 44.6273 192.945 44.6934L192.925 44.722L192.897 44.7682C192.914 44.8101 192.934 44.8542 192.954 44.896C192.974 44.9379 192.991 44.9775 193.014 45.0172H193.04C193.481 45.0524 193.888 45.1141 194.337 45.1493C194.549 45.1594 194.758 45.1919 194.963 45.2463C195.404 45.3784 195.736 45.7 196.106 45.96C197.023 46.6076 198.15 46.9094 199.051 47.579C200.373 48.5659 201.034 50.1959 201.836 51.6564C202.893 53.6125 204.616 55.2778 205.376 57.3705C205.719 58.3206 206.064 59.2693 206.411 60.2165C207.087 62.0734 207.763 63.9392 208.682 65.6904C209.96 68.1267 211.689 70.3163 212.713 72.8759C212.815 73.1325 213.006 73.3437 213.251 73.4707C214.646 75.4416 215.887 77.5177 216.962 79.6804C217.528 80.8236 218.064 82.0109 218.229 83.2776C218.358 84.4053 218.264 85.5473 217.954 86.639C217.778 87.2876 217.562 87.9247 217.308 88.5467C217.209 88.7644 217.135 88.9928 217.088 89.2273C217.088 89.2515 217.088 89.2758 217.088 89.3C217.044 89.7229 217.205 90.1415 217.249 90.5644C217.286 90.9049 217.247 91.2493 217.136 91.5733C217.119 91.624 217.099 91.6746 217.079 91.7253C216.942 91.9829 216.827 92.251 216.733 92.5271C216.725 92.5605 216.719 92.5943 216.716 92.6284C216.643 93.1064 216.832 93.5889 216.936 94.0669C217.324 95.7939 217.253 97.5913 217.156 99.3536C217.106 100.235 217.817 100.942 218.412 101.592C219.513 102.81 220.374 104.235 221.205 105.654C221.658 106.374 222.04 107.137 222.344 107.931C222.659 108.839 222.784 109.799 222.958 110.74C223.52 113.648 225.355 116.216 225.853 119.13C226.084 120.465 226.672 121.712 227.556 122.738C227.822 123.013 228.067 123.308 228.289 123.62C228.443 123.868 228.565 124.134 228.653 124.413C228.869 125.06 228.971 125.741 228.954 126.424C228.919 126.751 228.938 127.081 229.009 127.402C229.217 128.078 229.957 128.45 230.263 129.087C230.569 129.724 230.358 130.539 230.483 131.261C230.582 131.844 230.896 132.368 231.364 132.728C231.188 132.882 231.003 133.023 230.814 133.169C230.989 133.305 231.143 133.467 231.27 133.649C231.356 133.771 231.43 133.902 231.49 134.039C231.781 134.715 231.789 135.519 232.027 136.242C232.129 136.541 232.272 136.858 232.184 137.162C232.146 137.249 232.121 137.341 232.109 137.436C232.109 137.634 232.316 137.764 232.395 137.944C232.424 138.035 232.429 138.132 232.409 138.225C232.388 138.318 232.344 138.404 232.281 138.475V138.475Z" fill="url(#paint0_linear_311_20)"/>
<path d="M185.661 52.5651C187.009 52.2017 188.21 51.4417 189.386 50.6905L193.486 48.0802C192.373 47.9921 191.413 47.1991 190.842 46.2387C190.272 45.2783 190.036 44.1614 189.842 43.0645C188.08 43.7517 186.553 44.917 185.13 46.1484C184.566 46.6352 183.368 47.3709 183.194 48.1309C183.02 48.8909 184.13 49.5076 184.56 50.0165C184.707 50.1861 186.097 52.444 185.661 52.5651Z" fill="#FBBEBE"/>
<path opacity="0.1" d="M185.661 52.5651C187.009 52.2017 188.21 51.4417 189.386 50.6905L193.486 48.0802C192.373 47.9921 191.413 47.1991 190.842 46.2387C190.272 45.2783 190.036 44.1614 189.842 43.0645C188.08 43.7517 186.553 44.917 185.13 46.1484C184.566 46.6352 183.368 47.3709 183.194 48.1309C183.02 48.8909 184.13 49.5076 184.56 50.0165C184.707 50.1861 186.097 52.444 185.661 52.5651Z" fill="#1E1E1E"/>
<path d="M163.262 74.127C162.539 74.4971 161.771 74.876 160.962 74.8231C160.235 74.7768 159.572 74.3825 159.026 73.9001C158.585 73.5168 158.132 73.0388 157.552 73.0785C157.165 73.1049 156.839 73.3671 156.539 73.616L154.942 74.9531C154.673 75.1337 154.47 75.3964 154.363 75.702C154.331 75.9094 154.344 76.1211 154.4 76.3232C154.473 76.6801 154.594 77.0964 154.938 77.2175C155.281 77.3387 155.656 77.0788 156.019 76.9796C156.241 76.9229 156.474 76.9271 156.694 76.9918C156.914 77.0566 157.112 77.1795 157.268 77.3475C157.398 77.4751 157.476 77.646 157.488 77.8277C157.488 78.2264 157.048 78.4886 156.642 78.5084C156.237 78.5282 155.849 78.396 155.449 78.4203C155.424 78.4172 155.4 78.419 155.376 78.4256C155.353 78.4322 155.331 78.4434 155.312 78.4586C155.293 78.4738 155.277 78.4926 155.265 78.5141C155.253 78.5355 155.246 78.559 155.244 78.5833C155.219 78.7224 155.229 78.8656 155.274 78.9996C155.319 79.1335 155.398 79.254 155.501 79.3498C155.711 79.5409 155.954 79.6904 156.22 79.7904C156.528 79.9428 156.86 80.0397 157.202 80.0768C157.878 80.1208 158.499 79.7464 159.14 79.5283C160.004 79.2375 160.934 79.2287 161.845 79.2309C162.757 79.2331 163.683 79.2463 164.557 78.9908C165.432 78.7353 166.262 78.1691 166.604 77.3255C166.644 77.2468 166.657 77.1569 166.641 77.07C166.607 76.9772 166.541 76.8992 166.456 76.8497C165.227 75.9399 164.729 74.8341 163.346 74.1799L163.262 74.127Z" fill="#FBBEBE"/>
<path opacity="0.1" d="M163.262 74.127C162.539 74.4971 161.771 74.876 160.962 74.8231C160.235 74.7768 159.572 74.3825 159.026 73.9001C158.585 73.5168 158.132 73.0388 157.552 73.0785C157.165 73.1049 156.839 73.3671 156.539 73.616L154.942 74.9531C154.673 75.1337 154.47 75.3964 154.363 75.702C154.331 75.9094 154.344 76.1211 154.4 76.3232C154.473 76.6801 154.594 77.0964 154.938 77.2175C155.281 77.3387 155.656 77.0788 156.019 76.9796C156.241 76.9229 156.474 76.9271 156.694 76.9918C156.914 77.0566 157.112 77.1795 157.268 77.3475C157.398 77.4751 157.476 77.646 157.488 77.8277C157.488 78.2264 157.048 78.4886 156.642 78.5084C156.237 78.5282 155.849 78.396 155.449 78.4203C155.424 78.4172 155.4 78.419 155.376 78.4256C155.353 78.4322 155.331 78.4434 155.312 78.4586C155.293 78.4738 155.277 78.4926 155.265 78.5141C155.253 78.5355 155.246 78.559 155.244 78.5833C155.219 78.7224 155.229 78.8656 155.274 78.9996C155.319 79.1335 155.398 79.254 155.501 79.3498C155.711 79.5409 155.954 79.6904 156.22 79.7904C156.528 79.9428 156.86 80.0397 157.202 80.0768C157.878 80.1208 158.499 79.7464 159.14 79.5283C160.004 79.2375 160.934 79.2287 161.845 79.2309C162.757 79.2331 163.683 79.2463 164.557 78.9908C165.432 78.7353 166.262 78.1691 166.604 77.3255C166.644 77.2468 166.657 77.1569 166.641 77.07C166.607 76.9772 166.541 76.8992 166.456 76.8497C165.227 75.9399 164.729 74.8341 163.346 74.1799L163.262 74.127Z" fill="#1E1E1E"/>
<path d="M189.056 50.6344C188.715 50.4139 188.327 50.2747 187.923 50.2277C187.518 50.1808 187.109 50.2272 186.726 50.3635C185.958 50.6399 185.27 51.0988 184.719 51.7006C184.169 52.2612 183.693 52.8897 183.303 53.5708C182.928 54.2316 182.642 54.9233 182.267 55.5819C181.606 56.7604 180.743 57.8001 179.875 58.831C179.335 59.4721 178.789 60.1219 178.097 60.5933C177.406 61.0647 176.633 61.3532 176.163 62.0075C176.016 62.2145 175.91 62.448 175.765 62.6573C175.304 63.3314 174.522 63.6926 173.842 64.1442C171.89 65.4438 170.676 67.607 168.852 69.0807C168.066 69.7151 167.178 70.2129 166.405 70.8605C165.685 71.4619 165.083 72.1822 164.365 72.799C163.647 73.4158 162.803 73.9246 161.867 73.9819C162.493 75.3763 163.24 76.7442 164.312 77.8302C165.385 78.9162 166.993 79.61 168.458 79.1849C168.978 79.0351 169.487 78.7179 169.685 78.2157C169.747 77.9575 169.834 77.706 169.945 77.4645C170.092 77.2707 170.283 77.1144 170.502 77.0085C176.383 73.576 181.988 69.6926 187.268 65.3932C188.684 64.2389 190.089 63.2058 191.543 62.089C192.065 61.7193 192.547 61.2971 192.982 60.829C193.588 60.1049 193.967 59.2178 194.07 58.2791C194.174 57.3404 193.997 56.392 193.563 55.5533C193.173 54.9116 192.727 54.3064 192.228 53.7448C191.322 52.5646 190.254 51.5176 189.056 50.6344V50.6344Z" fill="#273469"/>
<path opacity="0.1" d="M189.056 50.6344C188.715 50.4139 188.327 50.2747 187.923 50.2277C187.518 50.1808 187.109 50.2272 186.726 50.3635C185.958 50.6399 185.27 51.0988 184.719 51.7006C184.169 52.2612 183.693 52.8897 183.303 53.5708C182.928 54.2316 182.642 54.9233 182.267 55.5819C181.606 56.7604 180.743 57.8001 179.875 58.831C179.335 59.4721 178.789 60.1219 178.097 60.5933C177.406 61.0647 176.633 61.3532 176.163 62.0075C176.016 62.2145 175.91 62.448 175.765 62.6573C175.304 63.3314 174.522 63.6926 173.842 64.1442C171.89 65.4438 170.676 67.607 168.852 69.0807C168.066 69.7151 167.178 70.2129 166.405 70.8605C165.685 71.4619 165.083 72.1822 164.365 72.799C163.647 73.4158 162.803 73.9246 161.867 73.9819C162.493 75.3763 163.24 76.7442 164.312 77.8302C165.385 78.9162 166.993 79.61 168.458 79.1849C168.978 79.0351 169.487 78.7179 169.685 78.2157C169.747 77.9575 169.834 77.706 169.945 77.4645C170.092 77.2707 170.283 77.1144 170.502 77.0085C176.383 73.576 181.988 69.6926 187.268 65.3932C188.684 64.2389 190.089 63.2058 191.543 62.089C192.065 61.7193 192.547 61.2971 192.982 60.829C193.588 60.1049 193.967 59.2178 194.07 58.2791C194.174 57.3404 193.997 56.392 193.563 55.5533C193.173 54.9116 192.727 54.3064 192.228 53.7448C191.322 52.5646 190.254 51.5176 189.056 50.6344V50.6344Z" fill="#1E1E1E"/>
<path d="M179.591 132.349C179.206 132.57 178.732 132.693 178.461 133.05C178.373 133.164 178.314 133.299 178.219 133.409C177.926 133.753 177.406 133.768 176.999 133.964C176.673 134.118 176.408 134.405 176.062 134.495C175.855 134.544 175.642 134.56 175.43 134.543L173.289 134.479C172.611 134.46 171.815 134.495 171.421 135.048C171.293 135.25 171.202 135.474 171.152 135.709C170.987 136.341 170.853 137.057 171.199 137.612C171.613 138.273 172.52 138.407 173.302 138.451C176.323 138.618 179.352 138.559 182.365 138.275C182.772 138.223 183.183 138.206 183.594 138.224C183.92 138.251 184.239 138.323 184.561 138.378C186.184 138.654 187.845 138.493 189.484 138.33C189.761 138.317 190.034 138.259 190.292 138.158C190.421 138.106 190.535 138.023 190.624 137.916C190.714 137.81 190.776 137.684 190.806 137.548C190.874 137.094 190.449 136.709 190.403 136.253C190.37 135.931 190.524 135.572 190.348 135.299C190.282 135.218 190.208 135.145 190.127 135.079C189.832 134.772 189.746 134.325 189.673 133.907L189.288 131.644C189.277 131.485 189.212 131.334 189.103 131.217C189.022 131.159 188.928 131.12 188.83 131.105C187.151 130.726 185.431 131.072 183.763 131.283C182.905 131.409 182.037 131.453 181.171 131.413C180.796 131.389 180.651 131.345 180.371 131.589C180.091 131.834 179.941 132.145 179.591 132.349Z" fill="#3F3D56"/>
<path d="M220.122 135.074C219.827 135.239 219.511 135.363 219.183 135.442C218.318 135.695 217.455 135.958 216.593 136.233C216.363 136.29 216.148 136.393 215.961 136.537C215.661 136.801 215.584 137.233 215.562 137.638C215.533 137.862 215.56 138.088 215.639 138.299C215.742 138.497 215.894 138.665 216.08 138.788C217.066 139.535 218.355 139.766 219.593 139.766C220.831 139.766 222.06 139.557 223.298 139.524C224.794 139.484 226.329 139.696 227.768 139.277C228.042 139.176 228.327 139.106 228.618 139.07C228.811 139.067 229.004 139.08 229.195 139.108C229.966 139.184 230.745 139.113 231.49 138.898C231.715 138.849 231.923 138.745 232.098 138.596C232.185 138.521 232.247 138.422 232.276 138.311C232.305 138.2 232.3 138.083 232.261 137.975C232.182 137.797 231.979 137.667 231.977 137.471C231.988 137.377 232.012 137.285 232.05 137.198C232.14 136.896 231.995 136.581 231.893 136.284C231.609 135.433 231.656 134.455 231.147 133.717C230.638 132.979 229.704 132.675 228.816 132.559C228.095 132.457 227.361 132.478 226.646 132.62C225.842 132.792 225.091 133.151 224.303 133.38C223.387 133.643 222.431 133.734 221.483 133.647C220.853 133.594 221.069 133.693 220.855 134.222C220.704 134.574 220.448 134.872 220.122 135.074V135.074Z" fill="#3F3D56"/>
<path d="M184.925 49.5106C188.453 49.5106 191.313 46.6505 191.313 43.1225C191.313 39.5944 188.453 36.7344 184.925 36.7344C181.397 36.7344 178.537 39.5944 178.537 43.1225C178.537 46.6505 181.397 49.5106 184.925 49.5106Z" fill="#FBBEBE"/>
<path d="M231.238 132.789C229.255 134.492 226.579 135.237 223.968 135.263C222.867 135.274 221.724 135.155 220.785 134.585C220.719 134.223 220.693 133.833 220.627 133.472C219.488 133.234 218.605 132.307 218.054 131.28C217.503 130.254 217.223 129.113 216.814 128.025C216.188 126.368 215.272 124.842 214.355 123.326C213.514 121.93 212.67 120.529 211.712 119.209C211.078 118.328 210.39 117.5 209.763 116.621C207.984 114.174 206.708 111.4 206.007 108.457C205.9 107.893 205.747 107.338 205.551 106.799C205.172 105.878 204.478 105.129 203.943 104.29C203.366 103.384 202.97 102.375 202.778 101.318C202.67 100.719 202.485 100.071 201.883 100.01C200.619 102.466 199.33 104.961 197.418 106.959C197.118 107.248 196.843 107.562 196.596 107.898C196.399 108.224 196.222 108.562 196.068 108.911C195.771 109.536 195.377 110.11 194.9 110.612C194.501 111.039 193.974 111.326 193.398 111.431C193.823 113.548 193.57 115.744 192.675 117.709C192.409 118.291 192.09 118.846 191.838 119.434C190.812 121.857 191.05 124.591 190.942 127.219C190.933 127.769 190.868 128.318 190.748 128.855C190.482 129.93 189.931 131.073 190.197 132.148C187.435 133.204 184.367 133.137 181.441 132.692C180.869 132.64 180.314 132.471 179.809 132.197C179.394 131.903 179.032 131.541 178.738 131.126C178.625 131.005 178.541 130.86 178.494 130.701C178.379 130.199 178.934 129.82 179.192 129.379C179.45 128.939 179.496 128.241 179.142 127.879C179.318 124.996 180.115 122.181 180.291 119.288C180.362 118.143 180.333 116.993 180.386 115.845C180.439 114.698 180.562 113.581 180.69 112.453C180.981 109.878 181.686 107.354 181.587 104.765C181.556 103.969 181.74 103.179 182.117 102.477C182.436 101.943 182.797 101.436 183.197 100.961C184.549 99.2143 186.175 97.4631 186.657 95.3066C186.906 94.1942 187.457 93.1765 188.003 92.1764C188.327 91.5794 188.664 90.9693 189.18 90.5309C189.46 90.3369 189.721 90.1155 189.957 89.8701C190.319 89.4053 190.332 88.7687 190.545 88.2136C190.656 87.9272 190.825 87.6629 190.907 87.3677C190.974 87.0416 191.007 86.7094 191.006 86.3764C191.076 85.3103 191.486 84.2794 191.918 83.3035C190.902 82.7157 190.006 81.9432 189.274 81.0258C189.029 80.728 188.815 80.4054 188.636 80.0632C188.182 79.1689 188.078 78.149 187.865 77.1687C187.356 74.8294 186.186 72.6288 186.023 70.2388C185.975 69.5096 186.023 68.7563 185.77 68.0668C185.653 67.775 185.516 67.4916 185.36 67.2187C185.206 66.9506 185.089 66.6632 185.012 66.364C184.871 65.7142 185.065 65.0424 185.012 64.3815C184.959 63.7978 184.71 63.2515 184.587 62.681C184.461 61.9386 184.439 61.1824 184.523 60.4341C184.578 59.553 184.77 58.6432 184.695 57.7731C184.573 56.3333 184.757 54.8841 185.233 53.52C185.709 52.1559 186.468 50.9075 187.459 49.8563L187.51 49.8056C187.931 49.365 188.391 48.9751 188.77 48.5082C189.285 47.8826 189.651 47.1468 190.195 46.5389C190.433 46.2679 190.702 46.0256 190.937 45.7525C191.154 45.466 191.393 45.1978 191.653 44.9506C191.785 44.8284 191.945 44.7402 192.118 44.6937C192.292 44.6473 192.474 44.644 192.649 44.6841C192.693 45.0126 192.796 45.3305 192.953 45.6225C193.411 45.6577 193.819 45.7216 194.275 45.7569C194.486 45.7669 194.696 45.7994 194.9 45.8538C195.33 45.9838 195.674 46.2943 196.041 46.5609C196.958 47.2063 198.083 47.5059 198.984 48.1711C200.306 49.1514 200.967 50.7704 201.764 52.2221C202.819 54.1671 204.54 55.8214 205.289 57.9009L206.322 60.7293C206.998 62.5752 207.674 64.4278 208.591 66.168C209.866 68.5911 211.593 70.774 212.617 73.3095C212.72 73.5637 212.91 73.7731 213.153 73.8998C214.547 75.8559 215.787 77.9182 216.86 80.0676C217.426 81.2043 217.961 82.385 218.124 83.6428C218.365 85.4204 217.88 87.2179 217.206 88.8788C217.097 89.1166 217.023 89.3689 216.986 89.6278C216.942 90.0485 217.102 90.4626 217.146 90.8834C217.189 91.2763 217.131 91.6736 216.977 92.0376C216.84 92.2935 216.724 92.5602 216.631 92.835C216.512 93.3417 216.723 93.8571 216.838 94.3638C217.226 96.0798 217.155 97.8574 217.058 99.6153C217.008 100.496 217.719 101.195 218.312 101.84C219.413 103.049 220.272 104.464 221.103 105.876C221.554 106.592 221.935 107.35 222.239 108.14C222.554 109.041 222.68 109.995 222.854 110.931C223.413 113.819 225.246 116.372 225.744 119.269C225.974 120.596 226.562 121.835 227.444 122.853C227.71 123.128 227.955 123.422 228.178 123.734C228.33 123.981 228.452 124.246 228.539 124.522C228.756 125.165 228.858 125.842 228.841 126.52C228.806 126.845 228.825 127.173 228.896 127.492C229.103 128.164 229.843 128.534 230.147 129.166C230.451 129.798 230.242 130.609 230.368 131.327C230.462 131.907 230.773 132.429 231.238 132.789V132.789Z" fill="#273469"/>
<path d="M164.582 72.1446C163.86 72.5147 163.091 72.8935 162.282 72.8407C161.556 72.7944 160.893 72.4001 160.346 71.9177C159.906 71.5344 159.452 71.0564 158.873 71.0961C158.485 71.1225 158.159 71.3846 157.859 71.6335L156.262 72.9706C155.993 73.1513 155.79 73.414 155.683 73.7196C155.651 73.927 155.664 74.1387 155.72 74.3408C155.793 74.6976 155.914 75.114 156.258 75.2351C156.601 75.3563 156.976 75.0963 157.339 74.9972C157.561 74.9405 157.795 74.9447 158.014 75.0094C158.234 75.0742 158.433 75.197 158.588 75.3651C158.718 75.4927 158.797 75.6636 158.809 75.8453C158.809 76.244 158.368 76.5061 157.963 76.526C157.557 76.5458 157.17 76.4136 156.769 76.4378C156.745 76.4348 156.72 76.4366 156.697 76.4432C156.673 76.4498 156.651 76.461 156.632 76.4762C156.613 76.4914 156.597 76.5102 156.585 76.5316C156.574 76.553 156.566 76.5766 156.564 76.6009C156.539 76.74 156.55 76.8832 156.595 77.0171C156.64 77.1511 156.718 77.2716 156.822 77.3674C157.031 77.5585 157.275 77.708 157.54 77.808C157.848 77.9603 158.181 78.0573 158.522 78.0944C159.199 78.1384 159.82 77.7639 160.461 77.5459C161.324 77.2551 162.254 77.2463 163.166 77.2485C164.078 77.2507 165.003 77.2639 165.877 77.0084C166.752 76.7528 167.582 76.1867 167.924 75.3431C167.964 75.2643 167.977 75.1745 167.961 75.0875C167.927 74.9947 167.862 74.9168 167.776 74.8673C166.547 73.9575 166.049 72.8517 164.666 72.1975L164.582 72.1446Z" fill="#FBBEBE"/>
<path d="M181.817 39.1967C181.436 39.2583 181.112 39.5161 180.751 39.6593C180.508 39.7535 180.249 39.7951 179.989 39.7814C179.729 39.7678 179.475 39.6991 179.244 39.58C179.083 39.5016 178.942 39.387 178.832 39.2451C178.537 38.8354 178.64 38.2407 178.821 37.7604C179.676 35.4894 181.958 34.084 184.218 33.9937C186.478 33.9034 188.676 34.9585 190.458 36.4674C190.988 36.9028 191.464 37.4006 191.875 37.9499C192.804 39.2385 193.225 40.884 193.348 42.5141C193.422 43.1981 193.377 43.8898 193.214 44.5583C193.136 44.8831 192.993 45.1889 192.794 45.4572C192.595 45.7256 192.344 45.951 192.055 46.1201C191.425 46.4417 190.67 46.3403 190.033 46.032C189.397 45.7236 188.85 45.2367 188.304 44.772C188.057 44.5333 187.764 44.3468 187.443 44.2235C187.283 44.1664 187.11 44.1569 186.944 44.196C186.779 44.2351 186.629 44.3211 186.511 44.4437C186.216 44.7984 186.291 45.3799 186.022 45.7654C185.753 46.1509 185.194 46.206 184.722 46.206C184.251 46.206 183.773 46.1663 183.491 45.7918C183.233 45.4526 183.271 44.957 183.368 44.5296C183.465 44.1023 183.63 43.6794 183.588 43.241C183.498 42.3599 182.727 41.818 182.487 41.0074C182.33 40.4765 182.674 40.2518 182.639 39.7716C182.612 39.3487 182.158 39.1416 181.817 39.1967Z" fill="#3F3D56"/>
<path opacity="0.1" d="M201.886 99.9536V100.009C200.622 102.465 199.333 104.961 197.421 106.959C197.121 107.247 196.846 107.561 196.6 107.897C196.402 108.223 196.226 108.562 196.071 108.91C195.774 109.535 195.38 110.109 194.903 110.611L193.309 111.408L198.375 84.9746L201.886 99.9536Z" fill="#1E1E1E"/>
<path opacity="0.1" d="M194.523 59.9465C194.088 60.4145 193.606 60.8368 193.084 61.2065C191.631 62.3079 190.221 63.3476 188.809 64.5107C187.671 65.4373 186.516 66.3449 185.346 67.2333C185.192 66.9652 185.075 66.6778 184.998 66.3786C184.857 65.7288 185.051 65.057 184.998 64.3961C184.945 63.8124 184.696 63.2661 184.573 62.6956C184.447 61.9532 184.425 61.197 184.509 60.4487C184.564 59.5676 184.756 58.6578 184.681 57.7877C184.559 56.3445 184.743 54.8918 185.222 53.5248C185.701 52.1578 186.463 50.9074 187.458 49.8555L187.509 49.8048C187.746 49.6669 187.997 49.5547 188.258 49.47C188.642 49.3353 189.052 49.2907 189.456 49.3395C189.86 49.3884 190.248 49.5295 190.589 49.7519C191.786 50.6351 192.854 51.6821 193.761 52.8623C194.259 53.4238 194.706 54.0291 195.096 54.6708C195.531 55.5087 195.709 56.4565 195.607 57.3952C195.505 58.3339 195.128 59.2215 194.523 59.9465V59.9465Z" fill="#1E1E1E"/>
<path d="M190.379 48.651C190.037 48.4305 189.649 48.2913 189.245 48.2443C188.841 48.1974 188.431 48.2438 188.048 48.3801C187.281 48.6565 186.592 49.1154 186.041 49.7172C185.492 50.2778 185.016 50.9063 184.625 51.5874C184.25 52.2482 183.964 52.9399 183.59 53.5985C182.929 54.777 182.065 55.8167 181.197 56.8476C180.658 57.4887 180.111 58.1385 179.42 58.6099C178.728 59.0813 177.955 59.3698 177.486 60.0241C177.338 60.2311 177.232 60.4646 177.087 60.6739C176.627 61.348 175.845 61.7092 175.164 62.1608C173.212 63.4604 171.998 65.6236 170.175 67.0973C169.388 67.7317 168.5 68.2295 167.727 68.8771C167.007 69.4785 166.406 70.1988 165.687 70.8156C164.969 71.4324 164.126 71.9412 163.189 71.9985C163.815 73.3929 164.562 74.7608 165.635 75.8468C166.707 76.9328 168.315 77.6266 169.78 77.2015C170.3 77.0517 170.809 76.7345 171.007 76.2323C171.07 75.9741 171.157 75.7226 171.267 75.4811C171.414 75.2873 171.605 75.131 171.824 75.0251C177.705 71.5926 183.31 67.7092 188.59 63.4098C190.006 62.2555 191.412 61.2224 192.866 60.1056C193.387 59.7359 193.869 59.3137 194.304 58.8456C194.91 58.1215 195.289 57.2344 195.392 56.2957C195.496 55.357 195.32 54.4086 194.886 53.5699C194.496 52.9282 194.049 52.323 193.551 51.7614C192.644 50.5812 191.576 49.5342 190.379 48.651V48.651Z" fill="#273469"/>
<g opacity="0.1">
<path d="M185.161 45.3187C184.721 45.3187 184.212 45.279 183.93 44.9046C183.674 44.5653 183.71 44.0697 183.806 43.6424C183.903 43.215 184.069 42.7921 184.027 42.3537C183.936 41.4726 183.165 40.9307 182.925 40.1201C182.769 39.5892 183.113 39.3645 183.077 38.8843C183.047 38.468 182.595 38.2609 182.254 38.316C181.872 38.3777 181.549 38.6354 181.187 38.7786C180.945 38.8728 180.685 38.9144 180.425 38.9007C180.166 38.8871 179.912 38.8184 179.681 38.6993C179.519 38.6209 179.378 38.5063 179.269 38.3645C178.974 37.9547 179.077 37.36 179.258 36.8798C179.258 36.8621 179.273 36.8467 179.28 36.8291C179.095 37.1238 178.941 37.4359 178.817 37.7609C178.637 38.2411 178.533 38.8359 178.828 39.2456C178.938 39.3874 179.079 39.502 179.24 39.5804C179.471 39.6995 179.725 39.7682 179.985 39.7819C180.245 39.7955 180.504 39.7539 180.747 39.6597C181.108 39.5165 181.432 39.2588 181.813 39.1971C182.154 39.142 182.606 39.3491 182.637 39.7654C182.672 40.2456 182.328 40.4703 182.485 41.0012C182.72 41.8118 183.491 42.3625 183.586 43.2348C183.63 43.6754 183.469 44.0983 183.366 44.5235C183.262 44.9486 183.234 45.4464 183.489 45.7857C183.771 46.1602 184.276 46.1954 184.721 46.1998C185.166 46.2042 185.738 46.1734 186.02 45.7592C186.142 45.5513 186.222 45.3216 186.256 45.083C185.956 45.2967 185.538 45.3231 185.161 45.3187Z" fill="#1E1E1E"/>
<path d="M192.494 45.2397C191.864 45.5613 191.108 45.46 190.471 45.1516C189.835 44.8432 189.289 44.3564 188.742 43.8916C188.495 43.653 188.202 43.4664 187.881 43.3431C187.721 43.2861 187.548 43.2765 187.383 43.3156C187.217 43.3547 187.067 43.4407 186.949 43.5634C186.8 43.7845 186.705 44.0383 186.674 44.3035C186.788 44.236 186.916 44.1938 187.048 44.1798C187.181 44.1657 187.314 44.1801 187.44 44.222C187.761 44.3454 188.054 44.5319 188.302 44.7705C188.848 45.2353 189.403 45.7243 190.031 46.0305C190.659 46.3367 191.423 46.4402 192.053 46.1186C192.61 45.7925 193.016 45.2598 193.183 44.6361C193.002 44.8871 192.766 45.0935 192.494 45.2397V45.2397Z" fill="#1E1E1E"/>
</g>
<path d="M137.673 139.934C141.323 139.934 144.281 136.975 144.281 133.325C144.281 129.675 141.323 126.717 137.673 126.717C134.023 126.717 131.064 129.675 131.064 133.325C131.064 136.975 134.023 139.934 137.673 139.934Z" fill="#3F3D56"/>
<path opacity="0.1" d="M137.673 139.934C141.323 139.934 144.281 136.975 144.281 133.325C144.281 129.675 141.323 126.717 137.673 126.717C134.023 126.717 131.064 129.675 131.064 133.325C131.064 136.975 134.023 139.934 137.673 139.934Z" fill="#1E1E1E"/>
<path d="M137.674 137.512C139.985 137.512 141.859 135.638 141.859 133.327C141.859 131.015 139.985 129.142 137.674 129.142C135.362 129.142 133.488 131.015 133.488 133.327C133.488 135.638 135.362 137.512 137.674 137.512Z" fill="#65617D"/>
<path opacity="0.1" d="M137.674 137.512C139.985 137.512 141.859 135.638 141.859 133.327C141.859 131.015 139.985 129.142 137.674 129.142C135.362 129.142 133.488 131.015 133.488 133.327C133.488 135.638 135.362 137.512 137.674 137.512Z" fill="#1E1E1E"/>
<path d="M132.607 122.972L136.943 132.775C137.007 132.922 137.112 133.047 137.246 133.136C137.379 133.225 137.535 133.274 137.696 133.278C137.856 133.281 138.014 133.238 138.151 133.155C138.288 133.071 138.399 132.95 138.469 132.806L143.621 122.312L132.607 122.972Z" fill="#3F3D56"/>
<path opacity="0.1" d="M132.607 122.972L136.943 132.775C137.007 132.922 137.112 133.047 137.246 133.136C137.379 133.225 137.535 133.274 137.696 133.278C137.856 133.281 138.014 133.238 138.151 133.155C138.288 133.071 138.399 132.95 138.469 132.806L143.621 122.312L132.607 122.972Z" fill="#1E1E1E"/>
<path d="M96.4834 139.934C100.133 139.934 103.092 136.975 103.092 133.325C103.092 129.675 100.133 126.717 96.4834 126.717C92.8337 126.717 89.875 129.675 89.875 133.325C89.875 136.975 92.8337 139.934 96.4834 139.934Z" fill="#3F3D56"/>
<path opacity="0.1" d="M96.4834 139.934C100.133 139.934 103.092 136.975 103.092 133.325C103.092 129.675 100.133 126.717 96.4834 126.717C92.8337 126.717 89.875 129.675 89.875 133.325C89.875 136.975 92.8337 139.934 96.4834 139.934Z" fill="#1E1E1E"/>
<path d="M96.4841 137.512C98.7956 137.512 100.669 135.638 100.669 133.327C100.669 131.015 98.7956 129.142 96.4841 129.142C94.1727 129.142 92.2988 131.015 92.2988 133.327C92.2988 135.638 94.1727 137.512 96.4841 137.512Z" fill="#65617D"/>
<path opacity="0.1" d="M96.4841 137.512C98.7956 137.512 100.669 135.638 100.669 133.327C100.669 131.015 98.7956 129.142 96.4841 129.142C94.1727 129.142 92.2988 131.015 92.2988 133.327C92.2988 135.638 94.1727 137.512 96.4841 137.512Z" fill="#1E1E1E"/>
<path d="M91.418 122.972L95.7531 132.775C95.8176 132.922 95.9229 133.047 96.0563 133.136C96.1898 133.225 96.346 133.274 96.5065 133.278C96.667 133.281 96.825 133.238 96.962 133.155C97.099 133.071 97.2092 132.95 97.2796 132.806L102.432 122.312L91.418 122.972Z" fill="#3F3D56"/>
<path opacity="0.1" d="M91.418 122.972L95.7531 132.775C95.8176 132.922 95.9229 133.047 96.0563 133.136C96.1898 133.225 96.346 133.274 96.5065 133.278C96.667 133.281 96.825 133.238 96.962 133.155C97.099 133.071 97.2092 132.95 97.2796 132.806L102.432 122.312L91.418 122.972Z" fill="#1E1E1E"/>
<path d="M159.122 75.7778C159.104 75.611 159.044 75.4513 158.948 75.3136C158.853 75.1758 158.724 75.0643 158.574 74.9892C158.447 74.9354 158.311 74.9075 158.174 74.9072C158.036 74.907 157.9 74.9344 157.774 74.9878C157.647 75.0413 157.532 75.1197 157.437 75.2183C157.341 75.3169 157.266 75.4338 157.217 75.562L153.426 84.9745L152.324 127.268H154.086L154.747 85.0648L159.03 76.4167C159.127 76.2188 159.159 75.9952 159.122 75.7778V75.7778Z" fill="#3F3D56"/>
<path d="M81.1738 123.964L87.1214 120.22L151.333 119.669L152.985 123.964H81.1738Z" fill="#273469"/>
<path d="M81.1738 127.929V123.964L154.148 123.259L154.078 125.946H82.4955V127.929H81.1738Z" fill="#3F3D56"/>
<path d="M90.4268 142.248C94.0765 142.248 97.0351 139.289 97.0351 135.64C97.0351 131.99 94.0765 129.031 90.4268 129.031C86.777 129.031 83.8184 131.99 83.8184 135.64C83.8184 139.289 86.777 142.248 90.4268 142.248Z" fill="#3F3D56"/>
<path d="M90.4275 139.824C92.739 139.824 94.6128 137.95 94.6128 135.638C94.6128 133.327 92.739 131.453 90.4275 131.453C88.116 131.453 86.2422 133.327 86.2422 135.638C86.2422 137.95 88.116 139.824 90.4275 139.824Z" fill="#65617D"/>
<path d="M85.3574 125.287L89.6925 135.089C89.7571 135.236 89.8623 135.362 89.9958 135.451C90.1293 135.54 90.2855 135.589 90.4459 135.592C90.6064 135.595 90.7645 135.553 90.9014 135.469C91.0384 135.385 91.1486 135.264 91.2191 135.12L96.3714 124.626L85.3574 125.287Z" fill="#3F3D56"/>
<path d="M141.751 142.248C145.401 142.248 148.359 139.289 148.359 135.64C148.359 131.99 145.401 129.031 141.751 129.031C138.101 129.031 135.143 131.99 135.143 135.64C135.143 139.289 138.101 142.248 141.751 142.248Z" fill="#3F3D56"/>
<path d="M141.752 139.824C144.063 139.824 145.937 137.95 145.937 135.638C145.937 133.327 144.063 131.453 141.752 131.453C139.44 131.453 137.566 133.327 137.566 135.638C137.566 137.95 139.44 139.824 141.752 139.824Z" fill="#65617D"/>
<path d="M136.682 125.287L141.017 135.089C141.081 135.236 141.187 135.362 141.32 135.451C141.454 135.54 141.61 135.589 141.77 135.592C141.931 135.595 142.089 135.553 142.226 135.469C142.363 135.385 142.473 135.264 142.543 135.12L147.696 124.626L136.682 125.287Z" fill="#3F3D56"/>
<path d="M116.971 106.672H89.4355V121.871H116.971V106.672Z" fill="#65617D"/>
<path opacity="0.1" d="M107.498 109.315H99.127V111.078H107.498V109.315Z" fill="#1E1E1E"/>
<path opacity="0.1" d="M106.452 109.536H100.174V110.858H106.452V109.536Z" fill="#1E1E1E"/>
<path d="M144.947 106.672H117.412V121.871H144.947V106.672Z" fill="#65617D"/>
<path opacity="0.1" d="M135.47 109.315H127.1V111.078H135.47V109.315Z" fill="#1E1E1E"/>
<path opacity="0.1" d="M134.424 109.536H128.146V110.858H134.424V109.536Z" fill="#1E1E1E"/>
<path d="M116.971 91.0342H89.4355V106.233H116.971V91.0342Z" fill="#65617D"/>
<path opacity="0.1" d="M107.498 93.6768H99.127V95.439H107.498V93.6768Z" fill="#1E1E1E"/>
<path opacity="0.1" d="M106.452 93.8965H100.174V95.2182H106.452V93.8965Z" fill="#1E1E1E"/>
<path d="M144.947 91.0342H117.412V106.233H144.947V91.0342Z" fill="#65617D"/>
<path opacity="0.1" d="M135.47 93.6768H127.1V95.439H135.47V93.6768Z" fill="#1E1E1E"/>
<path opacity="0.1" d="M134.424 93.8965H128.146V95.2182H134.424V93.8965Z" fill="#1E1E1E"/>
<path d="M116.971 75.1729H89.4355V90.3722H116.971V75.1729Z" fill="#65617D"/>
<path opacity="0.1" d="M107.498 77.8145H99.127V79.5767H107.498V77.8145Z" fill="#1E1E1E"/>
<path opacity="0.1" d="M106.452 78.0361H100.174V79.3578H106.452V78.0361Z" fill="#1E1E1E"/>
<path d="M144.947 75.1729H117.412V90.3722H144.947V75.1729Z" fill="#65617D"/>
<path opacity="0.1" d="M135.47 77.8145H127.1V79.5767H135.47V77.8145Z" fill="#1E1E1E"/>
<path opacity="0.1" d="M134.424 78.0361H128.146V79.3578H134.424V78.0361Z" fill="#1E1E1E"/>
<path d="M144.947 59.3115H117.412V74.5108H144.947V59.3115Z" fill="#65617D"/>
<path opacity="0.1" d="M135.47 61.9561H127.1V63.7183H135.47V61.9561Z" fill="#1E1E1E"/>
<path opacity="0.1" d="M134.424 62.1768H128.146V63.4984H134.424V62.1768Z" fill="#1E1E1E"/>
</g>
</svg>
